<?xml version="1.0" encoding="UTF-8"?>
<svg xmlns="http://www.w3.org/2000/svg" id="Layer_1" data-name="Layer 1" viewBox="0 0 24 24">
  <path d="m21,11h-2.5c-1.654,0-3,1.346-3,3v.766c-.531-.476-1.232-.766-2-.766h-3c-1.654,0-3,1.346-3,3v.269c-.294-.171-.636-.269-1-.269h-3.5c-1.654,0-3,1.346-3,3v1c0,1.654,1.346,3,3,3h18c1.654,0,3-1.346,3-3v-7c0-1.654-1.346-3-3-3Zm-12.5,6c0-1.103.897-2,2-2h3c1.103,0,2,.897,2,2v6h-7v-6Zm-7.5,4v-1c0-1.103.897-2,2-2h3.5c.552,0,1,.449,1,1v4H3c-1.103,0-2-.897-2-2Zm22,0c0,1.103-.897,2-2,2h-4.5v-9c0-1.103.897-2,2-2h2.5c1.103,0,2,.897,2,2v7Zm-6.609-16.966l1.119.911-.442,1.329c-.138.438.017.917.385,1.193.187.139.417.215.648.215.214,0,.422-.063.603-.183l1.306-.874,1.33.866c.385.251.887.229,1.251-.049.365-.28.514-.762.365-1.208l-.455-1.297,1.114-.907c.347-.292.476-.774.32-1.2s-.564-.712-1.018-.712h-1.398l-.503-1.413c-.157-.422-.565-.706-1.016-.706s-.858.284-1.018.712l-.501,1.406h-1.398c-.452,0-.861.285-1.016.708-.157.424-.03.907.323,1.207Zm.692-.916h1.751c.212,0,.4-.133.471-.332l.619-1.738h.152l.619,1.738c.07.199.259.332.471.332h1.751l.06.142-1.38,1.125c-.164.133-.227.354-.156.553l.571,1.628-.128.088-1.606-1.046c-.168-.109-.384-.107-.551.003l-1.578,1.057c-.015.01-.03.015-.048.015l-.082-.101.549-1.649c.065-.197.002-.415-.159-.545l-1.387-1.128.062-.14Zm-8.692,3.807l1.119.911-.442,1.329c-.138.438.017.917.384,1.192.188.142.413.216.649.216.214,0,.422-.063.603-.183l1.306-.874,1.33.866c.385.25.886.229,1.251-.049.365-.28.514-.762.365-1.208l-.455-1.297,1.114-.907c.347-.292.476-.774.32-1.2s-.564-.712-1.018-.712h-1.398l-.503-1.413c-.157-.422-.565-.706-1.016-.706s-.858.284-1.018.712l-.501,1.406h-1.398c-.453,0-.861.286-1.016.708-.157.425-.03.907.323,1.207Zm.692-.916h1.751c.212,0,.4-.133.471-.332l.619-1.738h.152l.619,1.738c.07.199.259.332.471.332h1.751l.06.142-1.38,1.125c-.164.133-.227.354-.156.553l.571,1.628-.128.088-1.606-1.046c-.167-.109-.384-.107-.551.003l-1.578,1.057c-.015.01-.03.015-.048.015l-.082-.101.549-1.649c.065-.197.002-.415-.159-.545l-1.387-1.128.062-.14ZM.391,10.925l1.119.911-.442,1.329c-.138.438.017.917.384,1.192.188.142.413.216.649.216.214,0,.422-.063.603-.183l1.306-.874,1.33.866c.385.25.886.23,1.251-.049.365-.28.514-.762.365-1.208l-.455-1.297,1.114-.907c.347-.292.476-.774.32-1.2s-.564-.712-1.018-.712h-1.398l-.503-1.413c-.157-.422-.565-.706-1.016-.706s-.858.284-1.018.712l-.501,1.406h-1.398c-.453,0-.861.286-1.016.708-.157.425-.03.907.323,1.207Zm.692-.916h1.751c.212,0,.4-.133.471-.332l.619-1.738h.152l.619,1.738c.07.199.259.332.471.332h1.751l.06.142-1.38,1.125c-.164.133-.227.354-.156.553l.571,1.628-.128.088-1.606-1.046c-.167-.109-.384-.108-.551.003l-1.578,1.057c-.015.01-.03.015-.048.015l-.082-.101.549-1.649c.065-.197.002-.415-.159-.545l-1.387-1.128.062-.14Z"/>
</svg>
