<?xml version="1.0" encoding="UTF-8"?>
<svg xmlns="http://www.w3.org/2000/svg" id="Layer_1" data-name="Layer 1" viewBox="0 0 24 24">
  <path d="m8.37,18.845l.224,1.045C3.745,19.202,0,15.035,0,10,0,4.486,4.486,0,10,0c5.407,0,9.815,4.317,9.984,9.684-.299-.493-.679-.896-1.118-1.172-.712-4.255-4.411-7.512-8.866-7.512C5.037,1,1,5.038,1,10c0,4.406,3.184,8.075,7.37,8.845Zm15.63-1.845v5c0,1.103-.897,2-2,2h-10.479l-1.521-7.095.009-1.905h6.185l-.58-3.265c-.022-.425-.031-.58.021-.689.133-.401.401-.716.764-.894.392-.192.846-.199,1.28-.02.253.104.502.366.683.718l2.192,4.149h1.447c1.103,0,2,.897,2,2Zm-11.673,6h7.682v-7h-.059l-2.478-4.688c-.104-.202-.196-.265-.197-.266-.145-.058-.307-.061-.438.003-.11.054-.196.154-.246.285l.013.289.782,4.376h-6.382l-.005.855,1.327,6.145Zm10.673-6c0-.552-.448-1-1-1h-.991v7h.991c.552,0,1-.448,1-1v-5ZM14.342,6.394l-5.061,4.985c-.154.156-.419.161-.583-.004l-2.849-2.79-.699.715,2.844,2.785c.267.267.621.415.998.415s.731-.147.994-.412l5.057-4.982-.701-.712Z"/>
</svg>
