<svg width="24" height="24" viewBox="0 0 24 24" fill="none" xmlns="http://www.w3.org/2000/svg">
<path d="M22.355 5.378C21.579 3.911 20.058 3 18.385 3H5.615C3.942 3 2.421 3.911 1.645 5.377C0.895 6.795 0 9.092 0 11.978C0 17.504 2.019 22 4.5 22C6.128 22 7.103 19.854 7.633 18.054C7.816 17.434 8.404 17 9.065 17H14.935C15.596 17 16.185 17.434 16.367 18.054C16.897 19.854 17.871 22 19.5 22C21.981 22 24 17.504 24 11.978C24 9.092 23.105 6.795 22.355 5.378ZM19.5 21C18.734 21 17.922 19.793 17.326 17.771C17.019 16.729 16.036 16 14.935 16H9.065C7.964 16 6.981 16.729 6.674 17.771C6.078 19.793 5.266 21 4.5 21C2.848 21 1 17.142 1 11.978C1 9.297 1.832 7.164 2.529 5.845C3.132 4.707 4.314 4 5.615 4H18.385C19.686 4 20.869 4.707 21.471 5.845C22.168 7.163 23 9.297 23 11.978C23 17.142 21.152 21 19.5 21ZM9 9.5C9 9.776 8.776 10 8.5 10H7V11.5C7 11.776 6.776 12 6.5 12C6.224 12 6 11.776 6 11.5V10H4.5C4.224 10 4 9.776 4 9.5C4 9.224 4.224 9 4.5 9H6V7.5C6 7.224 6.224 7 6.5 7C6.776 7 7 7.224 7 7.5V9H8.5C8.776 9 9 9.224 9 9.5ZM16 8C16 7.448 16.448 7 17 7C17.552 7 18 7.448 18 8C18 8.552 17.552 9 17 9C16.448 9 16 8.552 16 8ZM16 10C16 10.552 15.552 11 15 11C14.448 11 14 10.552 14 10C14 9.448 14.448 9 15 9C15.552 9 16 9.448 16 10ZM20 10C20 10.552 19.552 11 19 11C18.448 11 18 10.552 18 10C18 9.448 18.448 9 19 9C19.552 9 20 9.448 20 10ZM18 12C18 12.552 17.552 13 17 13C16.448 13 16 12.552 16 12C16 11.448 16.448 11 17 11C17.552 11 18 11.448 18 12Z" fill="url(#paint0_linear_72_250)"/>
<defs>
<linearGradient id="paint0_linear_72_250" x1="12" y1="3" x2="12" y2="22" gradientUnits="userSpaceOnUse">
<stop stop-color="#FCC201" stop-opacity="0.752941"/>
<stop offset="0.5" stop-color="#EEB609"/>
<stop offset="0.75" stop-color="#DBA514" stop-opacity="0.952941"/>
<stop offset="0.875" stop-color="#C69320"/>
<stop offset="1" stop-color="#B78628"/>
</linearGradient>
</defs>
</svg>
