<svg width="24" height="24" viewBox="0 0 24 24" fill="none" xmlns="http://www.w3.org/2000/svg">
<g clip-path="url(#clip0_72_244)">
<path d="M23.5 9C23.776 9 24 8.776 24 8.5C24 8.224 23.776 8 23.5 8H22V6.5C22 6.331 21.99 6.164 21.972 6H23.5C23.776 6 24 5.776 24 5.5C24 5.224 23.776 5 23.5 5H21.743C21.29 3.723 20.277 2.71 19 2.257V0.5C19 0.224 18.776 0 18.5 0C18.224 0 18 0.224 18 0.5V2.028C17.836 2.01 17.669 2 17.5 2H16V0.5C16 0.224 15.776 0 15.5 0C15.224 0 15 0.224 15 0.5V2H12.5V0.5C12.5 0.224 12.276 0 12 0C11.724 0 11.5 0.224 11.5 0.5V2H9V0.5C9 0.224 8.776 0 8.5 0C8.224 0 8 0.224 8 0.5V2H6.5C6.331 2 6.164 2.01 6 2.028V0.5C6 0.224 5.776 0 5.5 0C5.224 0 5 0.224 5 0.5V2.257C3.723 2.71 2.71 3.723 2.257 5H0.5C0.224 5 0 5.224 0 5.5C0 5.776 0.224 6 0.5 6H2.028C2.01 6.164 2 6.331 2 6.5V8H0.5C0.224 8 0 8.224 0 8.5C0 8.776 0.224 9 0.5 9H2V11.5H0.5C0.224 11.5 0 11.724 0 12C0 12.276 0.224 12.5 0.5 12.5H2V15H0.5C0.224 15 0 15.224 0 15.5C0 15.776 0.224 16 0.5 16H2V17.5C2 17.669 2.01 17.836 2.028 18H0.5C0.224 18 0 18.224 0 18.5C0 18.776 0.224 19 0.5 19H2.257C2.71 20.277 3.723 21.29 5 21.743V23.5C5 23.776 5.224 24 5.5 24C5.776 24 6 23.776 6 23.5V21.972C6.164 21.99 6.331 22 6.5 22H8V23.5C8 23.776 8.224 24 8.5 24C8.776 24 9 23.776 9 23.5V22H11.5V23.5C11.5 23.776 11.724 24 12 24C12.276 24 12.5 23.776 12.5 23.5V22H15V23.5C15 23.776 15.224 24 15.5 24C15.776 24 16 23.776 16 23.5V22H17.5C17.669 22 17.836 21.99 18 21.972V23.5C18 23.776 18.224 24 18.5 24C18.776 24 19 23.776 19 23.5V21.743C20.277 21.29 21.29 20.277 21.743 19H23.5C23.776 19 24 18.776 24 18.5C24 18.224 23.776 18 23.5 18H21.972C21.99 17.836 22 17.669 22 17.5V16H23.5C23.776 16 24 15.776 24 15.5C24 15.224 23.776 15 23.5 15H22V12.5H23.5C23.776 12.5 24 12.276 24 12C24 11.724 23.776 11.5 23.5 11.5H22V9H23.5ZM17.5 21H6.5C4.57 21 3 19.43 3 17.5V6.5C3 4.57 4.57 3 6.5 3H17.5C19.43 3 21 4.57 21 6.5V17.5C21 19.43 19.43 21 17.5 21ZM17 7.5V16.5C17 16.776 16.776 17 16.5 17C16.224 17 16 16.776 16 16.5V7.5C16 7.224 16.224 7 16.5 7C16.776 7 17 7.224 17 7.5ZM11.838 8.372C11.623 7.56 10.816 6.996 9.981 7.001C9.199 7.03 8.484 7.606 8.283 8.364L6.018 16.364C5.943 16.63 6.097 16.906 6.363 16.981C6.408 16.994 6.454 17 6.5 17C6.718 17 6.918 16.856 6.98 16.636L7.724 14.008C7.724 14.008 7.725 14.008 7.726 14.008H12.313L13.016 16.63C13.088 16.896 13.362 17.051 13.628 16.984C13.895 16.912 14.053 16.638 13.982 16.371L11.837 8.373L11.838 8.372ZM8.008 13.008L9.248 8.628C9.339 8.283 9.671 8.014 10.018 8.001C10.396 7.968 10.774 8.263 10.872 8.63L12.046 13.008H8.008Z" fill="url(#paint0_linear_72_244)"/>
</g>
<defs>
<linearGradient id="paint0_linear_72_244" x1="12" y1="0" x2="12" y2="24" gradientUnits="userSpaceOnUse">
<stop stop-color="#FCC201" stop-opacity="0.752941"/>
<stop offset="0.5" stop-color="#EEB609"/>
<stop offset="0.75" stop-color="#DBA514" stop-opacity="0.952941"/>
<stop offset="0.875" stop-color="#C69320"/>
<stop offset="1" stop-color="#B78628"/>
</linearGradient>
<clipPath id="clip0_72_244">
<rect width="24" height="24" fill="white"/>
</clipPath>
</defs>
</svg>
