<svg width="24" height="24" viewBox="0 0 24 24" fill="none" xmlns="http://www.w3.org/2000/svg">
<g clip-path="url(#clip0_72_248)">
<path d="M8.37 18.845L8.594 19.89C3.745 19.202 0 15.035 0 10C0 4.486 4.486 0 10 0C15.407 0 19.815 4.317 19.984 9.684C19.685 9.191 19.305 8.788 18.866 8.512C18.154 4.257 14.455 1 10 1C5.037 1 1 5.038 1 10C1 14.406 4.184 18.075 8.37 18.845ZM24 17V22C24 23.103 23.103 24 22 24H11.521L10 16.905L10.009 15H16.194L15.614 11.735C15.592 11.31 15.583 11.155 15.635 11.046C15.768 10.645 16.036 10.33 16.399 10.152C16.791 9.96 17.245 9.953 17.679 10.132C17.932 10.236 18.181 10.498 18.362 10.85L20.554 14.999H22.001C23.104 14.999 24.001 15.896 24.001 16.999L24 17ZM12.327 23H20.009V16H19.95L17.472 11.312C17.368 11.11 17.276 11.047 17.275 11.046C17.13 10.988 16.968 10.985 16.837 11.049C16.727 11.103 16.641 11.203 16.591 11.334L16.604 11.623L17.386 15.999H11.004L10.999 16.854L12.326 22.999L12.327 23ZM23 17C23 16.448 22.552 16 22 16H21.009V23H22C22.552 23 23 22.552 23 22V17ZM14.342 6.394L9.281 11.379C9.127 11.535 8.862 11.54 8.698 11.375L5.849 8.585L5.15 9.3L7.994 12.085C8.261 12.352 8.615 12.5 8.992 12.5C9.369 12.5 9.723 12.353 9.986 12.088L15.043 7.106L14.342 6.394Z" fill="url(#paint0_linear_72_248)"/>
</g>
<defs>
<linearGradient id="paint0_linear_72_248" x1="12.0005" y1="0" x2="12.0005" y2="24" gradientUnits="userSpaceOnUse">
<stop stop-color="#FCC201" stop-opacity="0.752941"/>
<stop offset="0.5" stop-color="#EEB609"/>
<stop offset="0.75" stop-color="#DBA514" stop-opacity="0.952941"/>
<stop offset="0.875" stop-color="#C69320"/>
<stop offset="1" stop-color="#B78628"/>
</linearGradient>
<clipPath id="clip0_72_248">
<rect width="24" height="24" fill="white"/>
</clipPath>
</defs>
</svg>
